#!OML:ASF F:\VICON\USERDATA\INSTALL\rory3\rory3.ASF
:FULLY-SPECIFIED
:DEGREES
47
root -0.5607115897555854 16.85032714940048 15.73800757083325 3.7062533366903008 -4.2613386904646715 -3.797345300623746
lfemur -27.21554364054055 11.80633533763853 -11.728139574144171
ltibia 110.0713769722588
lfoot 9.272642599606748 -12.564573409521184
ltoes -2.4878690828503753
rfemur -21.040299161076796 11.891525152433797 32.54207422145208
rtibia 53.72380543375863
rfoot -23.90869071439965 -14.092874856113072
rtoes -6.566342879479468
lowerback 17.515234769281346 0.3084208578610018 2.705834293672902
upperback 0.2681337082964764 1.228885590621924 2.9077400714204913
thorax -9.958519075364574 0.4887842039883827 0.45780955523288125
lowerneck -20.66940259488925 -4.119140577044877 -1.4246012809699349
upperneck 13.049977273221655 -5.474317208144482 1.8523697103332855
head 7.581951859015342 -2.505625955571514 0.1548581954248125
lclavicle 1.1383609568502502e-16 1.6698628937865287e-15
lhumerus -54.91416395128478 -6.851613203913948 93.19806949773125
lradius 78.32481880051606
lwrist 36.60132023935481
lhand -30.407126029663306 -1.8630477028055674
lfingers 7.125019999999998
lthumb -3.153788592633525 29.904762114769838
rclavicle 1.10915866858257e-16 1.6688285390600667e-15
rhumerus -41.51142363519581 11.515917041915143 -93.73028302217696
rradius 108.76642279396039
rwrist -22.717700141319177
rhand -17.84884725201509 40.52609374729058
rfingers 7.125019999999998
rthumb 8.365379691538813 11.044578183573325
48
root -0.5648173450646592 16.820665927342844 17.086127878625568 4.240483314946692 -5.505555753279564 -3.8773924493405554
lfemur -31.666269391087464 14.426701810607053 -11.64985899256403
ltibia 111.22809652283804
lfoot 6.944100430846844 -11.924763753002495
ltoes -2.8906524568385255
rfemur -18.187423431447563 14.203262853526255 32.90054299295487
rtibia 52.49252223790228
rfoot -25.035492752336882 -14.943202543428914
rtoes -10.558149983075959
lowerback 16.832866762402585 1.1822359634658675 2.218978860093832
upperback 0.22296852154565705 2.285159560620198 2.7470271540616626
thorax -9.83215765382763 0.9480136684249736 -0.08205808126447112
lowerneck -20.779487097185974 -4.399028211111737 -1.4023099293197443
upperneck 12.789328826329179 -5.892202375060592 1.924497077829687
head 7.601140644842253 -2.688598928996723 0.12272538593471971
lclavicle 1.1408359424234916e-16 1.6700310696778117e-15
lhumerus -56.77204236051592 -6.93990348321587 93.50606318851499
lradius 79.58381669305615
lwrist 36.69837023415707
lhand -29.917969090896335 -1.322599923069765
lfingers 7.125019999999998
lthumb -2.6294815013576742 30.331096591851306
rclavicle 1.067691894953844e-16 1.6661834776645467e-15
rhumerus -39.36297629332568 12.603511497754978 -93.43391882953392
rradius 111.3659707616021
rwrist -22.77288565445908
rhand -17.84710324843361 40.474331199466825
rfingers 7.125019999999998
rthumb 8.384084877580003 11.042156415216445
49
root -0.5659760689525972 16.886215399083735 18.013348202001033 4.555467473310048 -4.139604110260103 -3.9518245730353945
lfemur -36.21751980823364 13.603890897805368 -12.620632347789956
ltibia 110.36806351849714
lfoot 4.821218483951448 -11.123263890830595
ltoes -3.2259862596629114
rfemur -14.694122850747133 12.852668643915806 32.96585916537653
rtibia 50.24688472761419
rfoot -24.617885006163174 -14.974441553977387
rtoes -14.437523317218186
lowerback 16.496600529816728 1.1492706751087196 2.882321843407558
upperback 0.09384687728982133 2.359649362582238 2.527233514511997
thorax -9.746840998244211 0.9766907687976394 -0.46900946642792585
lowerneck -20.72771038339019 -4.7215910680297 -1.4626260074193955
upperneck 12.662779848779085 -6.371343111251481 2.1232178551129266
head 7.607818023565083 -2.8869092441225517 0.14525160700652617
lclavicle 1.1404806654032495e-16 1.6700070702683737e-15
lhumerus -58.449917592061176 -7.0505596556718375 93.84025808137407
lradius 81.66641113474115
lwrist 36.683247147559335
lhand -29.555336005433897 -1.0090262751548478
lfingers 7.125019999999998
lthumb -2.249740254638234 30.83590397418021
rclavicle 1.0657420261413833e-16 1.6661959735976661e-15
rhumerus -37.578465817585474 13.669182487434348 -93.06687561489316
rradius 114.42402295361971
rwrist -22.23046936305406
rhand -17.846982568574198 40.368843518088326
rfingers 7.125019999999998
rthumb 8.37937567758726 10.953967272452568
50
root -0.5727357774904396 17.005359662968235 18.985492058465915 4.815787545111878 -3.9900884350542 -4.467045375052659
lfemur -40.448982905112196 13.582130385669299 -13.250514571097677
ltibia 107.5829881901899
lfoot 3.0622223574006866 -10.405121880895315
ltoes -3.9382641519316737
rfemur -10.884867157089657 12.90611426542927 33.51362605143084
rtibia 47.19966645676767
rfoot -22.48130728814275 -14.16759408916827
rtoes -18.038273270123792
lowerback 16.02949376948216 1.571734951840906 3.542518200322997
upperback -0.0242075575616722 3.0147592427607464 2.4273481319531824
thorax -9.668076652848642 1.1994723303221266 -1.1472770052773484
lowerneck -20.60016785772265 -5.057390516079487 -1.5538543265830933
upperneck 12.697623180884737 -6.890766672894856 2.3848340766718965
head 7.603805700672398 -3.1094654061197238 0.20542525196183042
lclavicle 1.1458704770374068e-16 1.6703727962370032e-15
lhumerus -60.21797917037535 -7.064295805222102 94.01656760337403
lradius 84.17768787705815
lwrist 36.71323334358863
lhand -29.475497494794116 -0.5911538017715285
lfingers 7.125019999999998
lthumb -2.1610732434519377 31.410354396407183
rclavicle 1.1043616506123421e-16 1.6687859276136447e-15
rhumerus -36.15374460418835 14.677346929432895 -92.66306677144347
rradius 117.55472753405033
rwrist -21.134835443761716
rhand -17.88502678300313 40.2414041703645
rfingers 7.125019999999998
rthumb 8.33878387495054 10.83564728667611
